<svg width="1280" height="640" viewBox="0 0 1280 640" fill="none" xmlns="http://www.w3.org/2000/svg">
  <defs>
    <linearGradient id="bg" x1="0" y1="0" x2="1280" y2="640" gradientUnits="userSpaceOnUse">
      <stop stop-color="#F8FAFC"/>
      <stop offset="1" stop-color="#EEF2FF"/>
    </linearGradient>
    <linearGradient id="brand" x1="178" y1="96" x2="1090" y2="560" gradientUnits="userSpaceOnUse">
      <stop stop-color="#2563EB"/>
      <stop offset="1" stop-color="#7C3AED"/>
    </linearGradient>
    <filter id="shadow" x="-20%" y="-20%" width="140%" height="140%">
      <feDropShadow dx="0" dy="18" stdDeviation="22" flood-color="#0F172A" flood-opacity="0.14"/>
    </filter>
  </defs>
  <rect width="1280" height="640" rx="36" fill="url(#bg)"/>
  <circle cx="1120" cy="60" r="260" fill="#C7D2FE" fill-opacity="0.55"/>
  <circle cx="70" cy="650" r="240" fill="#BFDBFE" fill-opacity="0.55"/>

  <rect x="72" y="66" width="188" height="36" rx="18" fill="#E0E7FF"/>
  <text x="166" y="91" text-anchor="middle" fill="#4338CA" font-family="Segoe UI, Arial, sans-serif" font-size="15" font-weight="700" letter-spacing="1.4">FULL-STACK SAMPLE</text>

  <text x="72" y="198" fill="#0F172A" font-family="Segoe UI, Arial, sans-serif" font-size="63" font-weight="750">Secure Dashboard</text>
  <text x="72" y="268" fill="#0F172A" font-family="Segoe UI, Arial, sans-serif" font-size="63" font-weight="750">Foundation</text>
  <text x="75" y="326" fill="#475569" font-family="Segoe UI, Arial, sans-serif" font-size="23">Replace mocked state with a secure, testable product foundation.</text>

  <g transform="translate(74 392)">
    <rect width="172" height="48" rx="14" fill="#0F172A"/>
    <text x="86" y="31" text-anchor="middle" fill="#FFFFFF" font-family="Segoe UI, Arial, sans-serif" font-size="17" font-weight="650">Next.js + React</text>
    <rect x="186" width="150" height="48" rx="14" fill="#0F172A"/>
    <text x="261" y="31" text-anchor="middle" fill="#FFFFFF" font-family="Segoe UI, Arial, sans-serif" font-size="17" font-weight="650">Express API</text>
    <rect x="350" width="146" height="48" rx="14" fill="#0F172A"/>
    <text x="423" y="31" text-anchor="middle" fill="#FFFFFF" font-family="Segoe UI, Arial, sans-serif" font-size="17" font-weight="650">MongoDB</text>
    <rect x="510" width="126" height="48" rx="14" fill="#0F172A"/>
    <text x="573" y="31" text-anchor="middle" fill="#FFFFFF" font-family="Segoe UI, Arial, sans-serif" font-size="17" font-weight="650">Docker</text>
  </g>

  <g transform="translate(760 126)" filter="url(#shadow)">
    <rect width="430" height="390" rx="28" fill="#FFFFFF"/>
    <rect width="430" height="64" rx="28" fill="#0F172A"/>
    <rect y="42" width="430" height="22" fill="#0F172A"/>
    <circle cx="30" cy="31" r="7" fill="#F87171"/>
    <circle cx="54" cy="31" r="7" fill="#FBBF24"/>
    <circle cx="78" cy="31" r="7" fill="#4ADE80"/>
    <rect x="42" y="100" width="224" height="18" rx="9" fill="#CBD5E1"/>
    <rect x="42" y="136" width="338" height="13" rx="6.5" fill="#E2E8F0"/>
    <rect x="42" y="160" width="294" height="13" rx="6.5" fill="#E2E8F0"/>
    <rect x="42" y="210" width="346" height="74" rx="18" fill="#F1F5F9"/>
    <path d="M75 252L101 230L128 246L166 218L210 246" stroke="url(#brand)" stroke-width="7" stroke-linecap="round" stroke-linejoin="round"/>
    <circle cx="210" cy="246" r="8" fill="#7C3AED"/>
    <rect x="42" y="314" width="166" height="40" rx="12" fill="url(#brand)"/>
    <text x="125" y="340" text-anchor="middle" fill="#FFFFFF" font-family="Segoe UI, Arial, sans-serif" font-size="15" font-weight="700">AUTHENTICATED</text>
    <rect x="224" y="314" width="164" height="40" rx="12" fill="#ECFDF5"/>
    <text x="306" y="340" text-anchor="middle" fill="#047857" font-family="Segoe UI, Arial, sans-serif" font-size="15" font-weight="700">TESTS PASSING</text>
  </g>

  <text x="75" y="548" fill="#334155" font-family="Segoe UI, Arial, sans-serif" font-size="18" font-weight="600">JWT auth · validation · protected API · explicit UI states · CI-ready</text>
  <text x="75" y="584" fill="#64748B" font-family="Segoe UI, Arial, sans-serif" font-size="16">merrrn1 / secure-dashboard-foundation</text>
</svg>
